<?xml version="1.0" standalone="no"?>
<!DOCTYPE svg PUBLIC "-//W3C//DTD SVG 20010904//EN"
 "http://www.w3.org/TR/2001/REC-SVG-20010904/DTD/svg10.dtd">
<svg version="1.0" xmlns="http://www.w3.org/2000/svg"
 width="225.000000pt" height="225.000000pt" viewBox="0 0 225.000000 225.000000"
 preserveAspectRatio="xMidYMid meet">

<g transform="translate(0.000000,225.000000) scale(0.100000,-0.100000)"
fill="#000000" stroke="none">
<path d="M1604 2142 c-137 -47 -259 -206 -318 -414 -14 -48 -20 -58 -39 -58
-12 0 -37 -9 -55 -20 -136 -83 -67 -300 91 -287 113 10 179 125 128 225 -11
22 -27 45 -35 49 -12 7 -10 22 13 94 66 204 161 308 305 334 l61 11 3 42 3 42
-53 0 c-29 -1 -76 -9 -104 -18z"/>
<path d="M187 1923 c-4 -3 -7 -15 -7 -25 0 -10 193 -254 430 -541 l429 -522 1
-307 0 -308 -244 0 c-238 0 -291 -6 -308 -33 -14 -22 -8 -57 12 -77 20 -20 33
-20 590 -20 557 0 570 0 590 20 20 20 26 55 12 77 -17 27 -70 33 -288 33
l-224 0 0 308 0 307 446 523 c341 400 445 528 442 545 -3 22 -3 22 -240 25
-227 2 -239 1 -258 -18 -25 -25 -26 -62 -2 -83 14 -13 45 -17 151 -19 l133 -3
-367 -430 c-201 -236 -370 -429 -373 -427 -4 2 -164 196 -355 430 l-348 427
409 3 c392 2 410 3 427 22 20 23 23 63 5 85 -11 13 -82 15 -535 15 -287 0
-525 -3 -528 -7z"/>
</g>
</svg>
